<?xml version="1.0" encoding="UTF-8"?>
<svg version="1.1" xmlns="http://www.w3.org/2000/svg" width="32" height="32">
<path d="M0 0 C10.56 0 21.12 0 32 0 C32 10.56 32 21.12 32 32 C21.44 32 10.88 32 0 32 C0 21.44 0 10.88 0 0 Z " fill="#FDFDFD" transform="translate(0,0)"/>
<path d="M0 0 C3.5786304 1.65167557 6.74820188 3.78286492 10 6 C9.67 7.32 9.34 8.64 9 10 C7.35 8.68 5.7 7.36 4 6 C3.67 9.3 3.34 12.6 3 16 C1.68 16.33 0.36 16.66 -1 17 C-1.02684679 14.35409986 -1.04676357 11.70846904 -1.0625 9.0625 C-1.07087891 8.30775391 -1.07925781 7.55300781 -1.08789062 6.77539062 C-1.09652441 4.85005687 -1.05224333 2.92464419 -1 1 C-0.67 0.67 -0.34 0.34 0 0 Z " fill="#084181" transform="translate(9,10)"/>
<path d="M0 0 C0.99 0 1.98 0 3 0 C3 5.28 3 10.56 3 16 C-1.03124183 16 -1.70830921 15.89077602 -4.75 13.6875 C-5.36359375 13.25824219 -5.9771875 12.82898437 -6.609375 12.38671875 C-7.06828125 11.92910156 -7.5271875 11.47148437 -8 11 C-8 10.01 -8 9.02 -8 8 C-6 9 -4 10 -2 11 C-1.93941406 10.37351562 -1.87882812 9.74703125 -1.81640625 9.1015625 C-1.73261719 8.28429688 -1.64882813 7.46703125 -1.5625 6.625 C-1.48128906 5.81289062 -1.40007813 5.00078125 -1.31640625 4.1640625 C-1 2 -1 2 0 0 Z " fill="#FD7022" transform="translate(21,10)"/>
<path d="M0 0 C0.66 0.33 1.32 0.66 2 1 C1 3 1 3 -1 5 C-2.34061543 4.69728039 -3.67405895 4.36162029 -5 4 C-5.99 4.33 -6.98 4.66 -8 5 C-8.66666667 3.66666667 -9.33333333 2.33333333 -10 1 C-6.41687463 -1.34281274 -4.0803831 -0.97574378 0 0 Z " fill="#354D70" transform="translate(20,5)"/>
</svg>
